PathFileType	4	(X/Y/Z)	output.trc
DataRate	CameraRate	NumFrames	NumMarkers	Units	OrigDataRate	OrigDataStartFrame	OrigNumFrames
100	100	12	23	m	100	774	6185
Frame#	Time	C7			T8			EL			EM			US			RS			AA			Fore_Clus_1			Fore_Clus_2			Fore_Clus_3			Fore_Clus_4			Hum_Clus_1			Hum_Clus_2			Hum_Clus_3			Hum_Clus_4			Thor_Clus_1			Thor_Clus_2			Thor_Clus_3			Thor_Clus_4			IJ			PX			GH			Thor_Clus_5		
		X1	Y1	Z1	X2	Y2	Z2	X3	Y3	Z3	X4	Y4	Z4	X5	Y5	Z5	X6	Y6	Z6	X7	Y7	Z7	X8	Y8	Z8	X9	Y9	Z9	X10	Y10	Z10	X11	Y11	Z11	X12	Y12	Z12	X13	Y13	Z13	X14	Y14	Z14	X15	Y15	Z15	X16	Y16	Z16	X17	Y17	Z17	X18	Y18	Z18	X19	Y19	Z19	X20	Y20	Z20	X21	Y21	Z21	X22	Y22	Z22	X23	Y23	Z23
773	7.730000	-0.058572	1.472515	-0.123180	-0.089039	1.237453	-0.141963	-0.205035	1.084772	0.096135	-0.167686	1.073915	0.043619	-0.048079	1.130568	0.281728	-0.045341	1.182942	0.268395	-0.190897	1.393849	0.038389	-0.114672	1.110978	0.247977	-0.083944	1.129800	0.288981	-0.089991	1.156017	0.281447	-0.124747	1.152953	0.235472	-0.205130	1.189036	0.115301	-0.240555	1.188983	0.066784	-0.250841	1.251538	0.060906	-0.210779	1.262050	0.102815	0.073285	1.378149	-0.000116	0.040066	1.334496	0.063795	0.037074	1.377858	0.025785	0.092085	1.334481	0.025748	0.009528	1.386917	-0.032373	0.039743	1.178151	0.031956	-0.166651	1.377535	0.007343	0.031349	1.353722	0.052004
774	7.740000	-0.058561	1.472503	-0.123212	-0.088976	1.237433	-0.141972	-0.204868	1.084737	0.096213	-0.167533	1.073878	0.043687	-0.047910	1.130602	0.281764	-0.045185	1.182973	0.268418	-0.190849	1.393821	0.038378	-0.114487	1.111007	0.248024	-0.083685	1.129822	0.288985	-0.089823	1.156044	0.281464	-0.124584	1.152968	0.235514	-0.205005	1.189014	0.115343	-0.240431	1.188936	0.066838	-0.250735	1.251477	0.060950	-0.210658	1.262021	0.102836	0.073347	1.378197	-0.000148	0.040135	1.334524	0.063770	0.037147	1.377886	0.025740	0.092152	1.334514	0.025704	0.009569	1.386928	-0.032406	0.039840	1.178174	0.031936	-0.166608	1.377489	0.007330	0.031422	1.353748	0.051975
775	7.750000	-0.058545	1.472495	-0.123242	-0.088912	1.237416	-0.141981	-0.204700	1.084704	0.096291	-0.167379	1.073844	0.043755	-0.047747	1.130638	0.281806	-0.045035	1.183006	0.268444	-0.190794	1.393795	0.038372	-0.114320	1.111029	0.248078	-0.083713	1.129937	0.289195	-0.089675	1.156062	0.281486	-0.124446	1.152966	0.235554	-0.204881	1.188978	0.115397	-0.240329	1.188880	0.066911	-0.250646	1.251409	0.061012	-0.210550	1.261990	0.102878	0.073437	1.378221	-0.000143	0.040214	1.334543	0.063753	0.037180	1.377896	0.025715	0.092221	1.334542	0.025661	0.009616	1.386940	-0.032439	0.039940	1.178198	0.031914	-0.166563	1.377446	0.007323	0.031478	1.353775	0.051944
776	7.760000	-0.058519	1.472491	-0.123270	-0.088844	1.237406	-0.141994	-0.204537	1.084674	0.096369	-0.167230	1.073813	0.043823	-0.047591	1.130687	0.281854	-0.044896	1.183052	0.268477	-0.190733	1.393774	0.038365	-0.114133	1.111076	0.248118	-0.083550	1.130011	0.289248	-0.089515	1.156120	0.281507	-0.124309	1.152992	0.235592	-0.204735	1.188971	0.115458	-0.240208	1.188851	0.066978	-0.250534	1.251373	0.061060	-0.210420	1.261967	0.102912	0.073480	1.378211	-0.000193	0.040295	1.334577	0.063655	0.037274	1.377948	0.025683	0.092281	1.334575	0.025642	0.009670	1.386955	-0.032472	0.040043	1.178221	0.031888	-0.166514	1.377407	0.007323	0.031560	1.353802	0.051915
777	7.770000	-0.058493	1.472490	-0.123293	-0.088778	1.237399	-0.142002	-0.204376	1.084647	0.096446	-0.167084	1.073786	0.043890	-0.047439	1.130742	0.281895	-0.044765	1.183104	0.268500	-0.190666	1.393756	0.038368	-0.113994	1.111095	0.248174	-0.083380	1.130062	0.289282	-0.089405	1.156148	0.281539	-0.124197	1.152987	0.235632	-0.204585	1.188950	0.115529	-0.240066	1.188829	0.067057	-0.250453	1.251326	0.061140	-0.210329	1.261943	0.102960	0.073507	1.378250	-0.000308	0.040380	1.334585	0.063624	0.037319	1.377939	0.025668	0.092366	1.334605	0.025596	0.009727	1.386970	-0.032502	0.040148	1.178245	0.031861	-0.166465	1.377373	0.007326	0.031655	1.353777	0.051885
778	7.780000	-0.058456	1.472494	-0.123313	-0.088708	1.237397	-0.142012	-0.204222	1.084624	0.096521	-0.166945	1.073763	0.043954	-0.047291	1.130824	0.281934	-0.044651	1.183184	0.268522	-0.190592	1.393743	0.038370	-0.113852	1.111139	0.248209	-0.083210	1.130144	0.289298	-0.089272	1.156220	0.281553	-0.124085	1.153027	0.235672	-0.204434	1.188955	0.115584	-0.239943	1.188809	0.067123	-0.250338	1.251290	0.061189	-0.210205	1.261931	0.103002	0.073586	1.378261	-0.000327	0.040461	1.334618	0.063609	0.037412	1.377967	0.025634	0.092434	1.334630	0.025571	0.009791	1.386986	-0.032531	0.040254	1.178267	0.031833	-0.166411	1.377343	0.007336	0.031747	1.353798	0.051851
779	7.790000	-0.058416	1.472499	-0.123328	-0.088639	1.237398	-0.142018	-0.204076	1.084606	0.096595	-0.166814	1.073744	0.044018	-0.047147	1.130932	0.281959	-0.044552	1.183290	0.268531	-0.190513	1.393733	0.038378	-0.113712	1.111196	0.248247	-0.083074	1.130233	0.289328	-0.089130	1.156320	0.281566	-0.123985	1.153065	0.235696	-0.204294	1.188926	0.115645	-0.239823	1.188781	0.067194	-0.250245	1.251258	0.061260	-0.210105	1.261911	0.103053	0.073677	1.378299	-0.000382	0.040541	1.334648	0.063596	0.037461	1.377967	0.025603	0.092525	1.334662	0.025530	0.009858	1.387002	-0.032557	0.040361	1.178288	0.031805	-0.166354	1.377318	0.007350	0.031824	1.353863	0.051837
780	7.800000	-0.058371	1.472506	-0.123338	-0.088571	1.237402	-0.142021	-0.203937	1.084593	0.096670	-0.166691	1.073729	0.044081	-0.047007	1.131078	0.281968	-0.044470	1.183434	0.268523	-0.190429	1.393726	0.038394	-0.113563	1.111295	0.248281	-0.082939	1.130378	0.289332	-0.088997	1.156461	0.281561	-0.123885	1.153157	0.235712	-0.204150	1.188936	0.115701	-0.239727	1.188776	0.067254	-0.250155	1.251238	0.061317	-0.209997	1.261919	0.103100	0.073757	1.378334	-0.000417	0.040627	1.334662	0.063564	0.037559	1.378024	0.025583	0.092611	1.334689	0.025496	0.009930	1.387017	-0.032579	0.040467	1.178306	0.031778	-0.166293	1.377298	0.007366	0.031900	1.353868	0.051813
781	7.810000	-0.058317	1.472515	-0.123344	-0.088502	1.237408	-0.142022	-0.203807	1.084586	0.096748	-0.166579	1.073717	0.044147	-0.046869	1.131277	0.281964	-0.044410	1.183632	0.268502	-0.190341	1.393724	0.038410	-0.113432	1.111403	0.248324	-0.082821	1.130526	0.289327	-0.088875	1.156624	0.281574	-0.123791	1.153253	0.235716	-0.204041	1.188920	0.115761	-0.239641	1.188756	0.067312	-0.250058	1.251215	0.061390	-0.209898	1.261904	0.103152	0.073869	1.378358	-0.000449	0.040711	1.334676	0.063557	0.037616	1.378016	0.025553	0.092692	1.334707	0.025461	0.010006	1.387031	-0.032597	0.040571	1.178323	0.031754	-0.166227	1.377280	0.007386	0.031994	1.353868	0.051785
782	7.820000	-0.058266	1.472522	-0.123342	-0.088438	1.237413	-0.142015	-0.203683	1.084585	0.096832	-0.166475	1.073710	0.044219	-0.046735	1.131529	0.281936	-0.044368	1.183883	0.268453	-0.190251	1.393721	0.038439	-0.113301	1.111544	0.248359	-0.082664	1.130746	0.289302	-0.088752	1.156833	0.281578	-0.123693	1.153398	0.235727	-0.203929	1.188936	0.115856	-0.239532	1.188760	0.067370	-0.249965	1.251212	0.061442	-0.209801	1.261886	0.103222	0.073982	1.378379	-0.000474	0.040797	1.334685	0.063537	0.037722	1.378040	0.025534	0.092775	1.334725	0.025428	0.010082	1.387043	-0.032609	0.040676	1.178337	0.031735	-0.166158	1.377267	0.007405	0.032072	1.353878	0.051764
783	7.830000	-0.058208	1.472530	-0.123336	-0.088373	1.237420	-0.142005	-0.203567	1.084590	0.096926	-0.166380	1.073705	0.044300	-0.046603	1.131855	0.281895	-0.044350	1.184208	0.268388	-0.190158	1.393721	0.038470	-0.113146	1.111722	0.248388	-0.082512	1.130985	0.289288	-0.088659	1.157043	0.281570	-0.123623	1.153553	0.235710	-0.203807	1.188943	0.115926	-0.239431	1.188757	0.067450	-0.249875	1.251202	0.061517	-0.209680	1.261901	0.103276	0.074082	1.378388	-0.000499	0.040888	1.334696	0.063533	0.037790	1.378043	0.025518	0.092875	1.334744	0.025401	0.010161	1.387053	-0.032617	0.040777	1.178348	0.031720	-0.166082	1.377254	0.007424	0.032163	1.353892	0.051751
784	7.840000	-0.058152	1.472534	-0.123324	-0.088311	1.237423	-0.141987	-0.203455	1.084603	0.097034	-0.166292	1.073703	0.044394	-0.046475	1.132256	0.281835	-0.044352	1.184607	0.268298	-0.190066	1.393721	0.038509	-0.112939	1.111956	0.248421	-0.082314	1.131300	0.289228	-0.088579	1.157344	0.281484	-0.123551	1.153770	0.235712	-0.203685	1.188974	0.116018	-0.239302	1.188766	0.067545	-0.249766	1.251204	0.061597	-0.209525	1.261938	0.103325	0.074188	1.378440	-0.000522	0.040984	1.334704	0.063517	0.037891	1.378061	0.025508	0.092962	1.334753	0.025382	0.010239	1.387060	-0.032619	0.040877	1.178356	0.031711	-0.166002	1.377243	0.007441	0.032264	1.353910	0.051739
